<?xml version="1.0" standalone="no"?>
<!DOCTYPE svg PUBLIC "-//W3C//DTD SVG 20010904//EN"
 "http://www.w3.org/TR/2001/REC-SVG-20010904/DTD/svg10.dtd">
<svg version="1.0" xmlns="http://www.w3.org/2000/svg"
 width="512.000000pt" height="512.000000pt" viewBox="0 0 512.000000 512.000000"
 preserveAspectRatio="xMidYMid meet">

<g transform="translate(0.000000,512.000000) scale(0.100000,-0.100000)"
fill="#000000" stroke="none">
<path d="M1089 4460 c-178 -23 -308 -160 -330 -347 -6 -46 -9 -695 -7 -1608
l3 -1530 23 -58 c44 -109 120 -185 229 -229 l58 -23 1590 0 1590 0 58 23 c109
44 185 120 229 229 l23 58 0 1590 0 1590 -23 58 c-44 109 -120 185 -229 229
l-58 23 -1550 1 c-852 1 -1575 -2 -1606 -6z m589 -894 c15 -8 194 -182 399
-388 396 -398 397 -399 378 -475 -7 -31 -730 -764 -777 -789 -93 -49 -202 30
-183 133 6 33 49 81 333 366 l327 327 -327 328 c-228 228 -329 336 -334 356
-24 100 93 190 184 142z m2086 -1787 c75 -59 72 -161 -7 -209 -31 -19 -54 -20
-618 -20 l-586 0 -34 23 c-40 27 -66 89 -55 132 4 15 22 43 41 62 l33 33 600
0 c593 0 600 0 626 -21z"/>
</g>
</svg>
